# xmcd CD database file
#
# Track frame offsets:
#	150
#	17107
#	33605
#	47883
#	61952
#	76575
#	92807
#	108005
#	121295
#	134922
#	152097
#	166633
#	180913
#	197259
#	209514
#	224318
#
# Disc length: 3224 seconds
#
# Revision: 0
# Processed by: cddbd v1.5.2PL0 Copyright (c) Steve Scherf et al.
# Submitted via: CDex 1.70beta2
#
DISCID=d00c9610
DTITLE=Apvedceļš - Pārdomu Autobuss
DYEAR=2009
DGENRE=Country
TTITLE0=Dzīve Pa Straumei
TTITLE1=Gaiza Skūsts
TTITLE2=Upe Un Roze
TTITLE3=Otrās Dienas Rīts
TTITLE4=Paradīzes Krasts
TTITLE5=Kad Ziedēja Ievas
TTITLE6=Šeit
TTITLE7=Vestsaidas Stāsts
TTITLE8=Četras Dienas
TTITLE9=Margrietiņa
TTITLE10=Pārdomu Autobuss
TTITLE11=Tiltleju Liepas (2006)
TTITLE12=Mana Sirds (2006)
TTITLE13=Mammai (2008)
TTITLE14=Vectēvam
TTITLE15=Zemenes (2008)
EXTD=YEAR: 2009
EXTT0=
EXTT1=
EXTT2=
EXTT3=
EXTT4=
EXTT5=
EXTT6=
EXTT7=
EXTT8=
EXTT9=
EXTT10=
EXTT11=
EXTT12=
EXTT13=
EXTT14=
EXTT15=
PLAYORDER=
